RubikHebrew-Regular.ufo
<glyph name="exclam" format="1">
  <advance width="243"/>
  <unicode hex="0021"/>
  <outline>
    <contour>
      <point x="143" y="164" type="line" smooth="yes"/>
      <point x="156" y="164"/>
      <point x="166" y="173"/>
      <point x="166" y="187" type="curve" smooth="yes"/>
      <point x="166" y="677" type="line" smooth="yes"/>
      <point x="166" y="691"/>
      <point x="156" y="700"/>
      <point x="143" y="700" type="curve" smooth="yes"/>
      <point x="100" y="700" type="line" smooth="yes"/>
      <point x="87" y="700"/>
      <point x="77" y="691"/>
      <point x="77" y="677" type="curve" smooth="yes"/>
      <point x="77" y="187" type="line" smooth="yes"/>
      <point x="77" y="173"/>
      <point x="87" y="164"/>
      <point x="100" y="164" type="curve" smooth="yes"/>
    </contour>
    <contour>
      <point x="152" y="0" type="line" smooth="yes"/>
      <point x="165" y="0"/>
      <point x="175" y="10"/>
      <point x="175" y="23" type="curve" smooth="yes"/>
      <point x="175" y="84" type="line" smooth="yes"/>
      <point x="175" y="97"/>
      <point x="165" y="107"/>
      <point x="152" y="107" type="curve" smooth="yes"/>
      <point x="91" y="107" type="line" smooth="yes"/>
      <point x="78" y="107"/>
      <point x="68" y="97"/>
      <point x="68" y="84" type="curve" smooth="yes"/>
      <point x="68" y="23" type="line" smooth="yes"/>
      <point x="68" y="10"/>
      <point x="78" y="0"/>
      <point x="91" y="0" type="curve" smooth="yes"/>
    </contour>
  </outline>
</glyph>
<glyph name="quotedbl" format="1">
  <advance width="370"/>
  <unicode hex="0022"/>
  <outline>
    <contour>
      <point x="276" y="491" type="line" smooth="yes"/>
      <point x="289" y="491"/>
      <point x="295" y="501"/>
      <point x="296" y="513" type="curve" smooth="yes"/>
      <point x="313" y="687" type="line" smooth="yes"/>
      <point x="314" y="701"/>
      <point x="306" y="710"/>
      <point x="293" y="710" type="curve" smooth="yes"/>
      <point x="230" y="710" type="line" smooth="yes"/>
      <point x="217" y="710"/>
      <point x="208" y="701"/>
      <point x="209" y="687" type="curve" smooth="yes"/>
      <point x="226" y="513" type="line" smooth="yes"/>
      <point x="228" y="501"/>
      <point x="233" y="491"/>
      <point x="246" y="491" type="curve" smooth="yes"/>
    </contour>
    <contour>
      <point x="123" y="491" type="line" smooth="yes"/>
      <point x="136" y="491"/>
      <point x="142" y="501"/>
      <point x="143" y="513" type="curve" smooth="yes"/>
      <point x="160" y="687" type="line" smooth="yes"/>
      <point x="161" y="701"/>
      <point x="153" y="710"/>
      <point x="140" y="710" type="curve" smooth="yes"/>
      <point x="77" y="710" type="line" smooth="yes"/>
      <point x="63" y="710"/>
      <point x="55" y="701"/>
      <point x="56" y="687" type="curve" smooth="yes"/>
      <point x="73" y="513" type="line" smooth="yes"/>
      <point x="74" y="501"/>
      <point x="80" y="491"/>
      <point x="93" y="491" type="curve" smooth="yes"/>
    </contour>
  </outline>
</glyph>
<glyph name="quotesingle" format="1">
  <advance width="217"/>
  <unicode hex="0027"/>
  <outline>
    <contour>
      <point x="123" y="491" type="line" smooth="yes"/>
      <point x="136" y="491"/>
      <point x="142" y="501"/>
      <point x="143" y="513" type="curve" smooth="yes"/>
      <point x="160" y="687" type="line" smooth="yes"/>
      <point x="161" y="701"/>
      <point x="153" y="710"/>
      <point x="140" y="710" type="curve" smooth="yes"/>
      <point x="77" y="710" type="line" smooth="yes"/>
      <point x="63" y="710"/>
      <point x="55" y="701"/>
      <point x="56" y="687" type="curve" smooth="yes"/>
      <point x="73" y="513" type="line" smooth="yes"/>
      <point x="74" y="501"/>
      <point x="80" y="491"/>
      <point x="93" y="491" type="curve" smooth="yes"/>
    </contour>
  </outline>
</glyph>
<glyph name="parenright" format="1">
  <advance width="336"/>
  <unicode hex="0029"/>
  <outline>
    <contour>
      <point x="220" y="-159"/>
      <point x="278" y="-17"/>
      <point x="278" y="309" type="curve" smooth="yes"/>
      <point x="278" y="635"/>
      <point x="220" y="776"/>
      <point x="47" y="776" type="curve" smooth="yes"/>
      <point x="34" y="776"/>
      <point x="24" y="766"/>
      <point x="24" y="753" type="curve" smooth="yes"/>
      <point x="24" y="720" type="line" smooth="yes"/>
      <point x="24" y="708"/>
      <point x="34" y="698"/>
      <point x="44" y="698" type="curve" smooth="yes"/>
      <point x="156" y="696"/>
      <point x="193" y="597"/>
      <point x="193" y="309" type="curve" smooth="yes"/>
      <point x="193" y="21"/>
      <point x="156" y="-79"/>
      <point x="44" y="-81" type="curve" smooth="yes"/>
      <point x="34" y="-81"/>
      <point x="24" y="-91"/>
      <point x="24" y="-103" type="curve" smooth="yes"/>
      <point x="24" y="-136" type="line" smooth="yes"/>
      <point x="24" y="-149"/>
      <point x="34" y="-159"/>
      <point x="47" y="-159" type="curve" smooth="yes"/>
    </contour>
  </outline>
</glyph>
<glyph name="slash" format="1">
  <advance width="479"/>
  <unicode hex="002F"/>
  <outline>
    <contour>
      <point x="82" y="-84" type="line" smooth="yes"/>
      <point x="98" y="-84"/>
      <point x="106" y="-73"/>
      <point x="108" y="-67" type="curve" smooth="yes"/>
      <point x="451" y="754" type="line" smooth="yes"/>
      <point x="453" y="759"/>
      <point x="454" y="764"/>
      <point x="454" y="766" type="curve" smooth="yes"/>
      <point x="454" y="777"/>
      <point x="445" y="786"/>
      <point x="434" y="786" type="curve" smooth="yes"/>
      <point x="397" y="786" type="line" smooth="yes"/>
      <point x="382" y="786"/>
      <point x="374" y="775"/>
      <point x="371" y="769" type="curve" smooth="yes"/>
      <point x="29" y="-52" type="line"/>
      <point x="27" y="-57"/>
      <point x="26" y="-62"/>
      <point x="26" y="-64" type="curve" smooth="yes"/>
      <point x="26" y="-75"/>
      <point x="35" y="-84"/>
      <point x="46" y="-84" type="curve" smooth="yes"/>
    </contour>
  </outline>
</glyph>
<glyph name="zero" format="1">
  <advance width="633"/>
  <unicode hex="0030"/>
  <outline>
    <contour>
      <point x="500" y="-10"/>
      <point x="563" y="116"/>
      <point x="568" y="263" type="curve" smooth="yes"/>
      <point x="570" y="317"/>
      <point x="570" y="381"/>
      <point x="568" y="438" type="curve" smooth="yes"/>
      <point x="564" y="585"/>
      <point x="499" y="710"/>
      <point x="316" y="710" type="curve"/>
      <point x="133" y="710"/>
      <point x="68" y="585"/>
      <point x="64" y="438" type="curve" smooth="yes"/>
      <point x="62" y="381"/>
      <point x="62" y="317"/>
      <point x="64" y="263" type="curve" smooth="yes"/>
      <point x="69" y="116"/>
      <point x="132" y="-10"/>
      <point x="316" y="-10" type="curve"/>
    </contour>
    <contour>
      <point x="211" y="73"/>
      <point x="162" y="147"/>
      <point x="159" y="268" type="curve" smooth="yes"/>
      <point x="158" y="325"/>
      <point x="158" y="378"/>
      <point x="159" y="433" type="curve" smooth="yes"/>
      <point x="162" y="551"/>
      <point x="211" y="628"/>
      <point x="316" y="628" type="curve"/>
      <point x="421" y="628"/>
      <point x="470" y="551"/>
      <point x="472" y="433" type="curve" smooth="yes"/>
      <point x="474" y="378"/>
      <point x="474" y="325"/>
      <point x="472" y="268" type="curve" smooth="yes"/>
      <point x="470" y="147"/>
      <point x="421" y="73"/>
      <point x="316" y="73" type="curve" smooth="yes"/>
    </contour>
  </outline>
</glyph>
<glyph name="one" format="1">
  <advance width="425"/>
  <unicode hex="0031"/>
  <outline>
    <contour>
      <point x="325" y="0" type="line" smooth="yes"/>
      <point x="338" y="0"/>
      <point x="348" y="10"/>
      <point x="348" y="23" type="curve" smooth="yes"/>
      <point x="348" y="677" type="line" smooth="yes"/>
      <point x="348" y="691"/>
      <point x="338" y="700"/>
      <point x="325" y="700" type="curve" smooth="yes"/>
      <point x="278" y="700" type="line" smooth="yes"/>
      <point x="269" y="700"/>
      <point x="261" y="699"/>
      <point x="252" y="693" type="curve" smooth="yes"/>
      <point x="35" y="525" type="line"/>
      <point x="23" y="517"/>
      <point x="22" y="503"/>
      <point x="30" y="493" type="curve"/>
      <point x="54" y="462" type="line" smooth="yes"/>
      <point x="62" y="451"/>
      <point x="75" y="449"/>
      <point x="86" y="458" type="curve" smooth="yes"/>
      <point x="254" y="587" type="line"/>
      <point x="254" y="23" type="line" smooth="yes"/>
      <point x="254" y="10"/>
      <point x="263" y="0"/>
      <point x="277" y="0" type="curve" smooth="yes"/>
    </contour>
  </outline>
</glyph>
<glyph name="seven" format="1">
  <advance width="510"/>
  <unicode hex="0037"/>
  <outline>
    <contour>
      <point x="200" y="0" type="line" smooth="yes"/>
      <point x="216" y="0"/>
      <point x="223" y="14"/>
      <point x="228" y="25" type="curve" smooth="yes"/>
      <point x="475" y="603" type="line" smooth="yes"/>
      <point x="481" y="616"/>
      <point x="483" y="625"/>
      <point x="483" y="642" type="curve" smooth="yes"/>
      <point x="483" y="676" type="line" smooth="yes"/>
      <point x="483" y="691"/>
      <point x="474" y="700"/>
      <point x="460" y="700" type="curve" smooth="yes"/>
      <point x="52" y="700" type="line" smooth="yes"/>
      <point x="39" y="700"/>
      <point x="29" y="691"/>
      <point x="29" y="676" type="curve" smooth="yes"/>
      <point x="29" y="639" type="line" smooth="yes"/>
      <point x="29" y="625"/>
      <point x="39" y="616"/>
      <point x="52" y="616" type="curve" smooth="yes"/>
      <point x="382" y="616" type="line"/>
      <point x="132" y="31" type="line" smooth="yes"/>
      <point x="131" y="28"/>
      <point x="130" y="24"/>
      <point x="130" y="22" type="curve" smooth="yes"/>
      <point x="130" y="10"/>
      <point x="138" y="0"/>
      <point x="150" y="0" type="curve" smooth="yes"/>
    </contour>
  </outline>
</glyph>
<glyph name="at" format="1">
  <advance width="831"/>
  <unicode hex="0040"/>
  <outline>
    <contour>
      <point x="569" y="-118"/>
      <point x="652" y="-65"/>
      <point x="706" y="-8" type="curve" smooth="yes"/>
      <point x="709" y="-3"/>
      <point x="711" y="1"/>
      <point x="711" y="7" type="curve" smooth="yes"/>
      <point x="712" y="20"/>
      <point x="702" y="29"/>
      <point x="689" y="29" type="curve" smooth="yes"/>
      <point x="652" y="29" type="line" smooth="yes"/>
      <point x="639" y="29"/>
      <point x="632" y="21"/>
      <point x="626" y="16" type="curve" smooth="yes"/>
      <point x="598" y="-5"/>
      <point x="554" y="-49"/>
      <point x="410" y="-49" type="curve" smooth="yes"/>
      <point x="243" y="-49"/>
      <point x="148" y="39"/>
      <point x="132" y="192" type="curve" smooth="yes"/>
      <point x="128" y="229"/>
      <point x="128" y="319"/>
      <point x="132" y="353" type="curve" smooth="yes"/>
      <point x="150" y="505"/>
      <point x="241" y="596"/>
      <point x="406" y="596" type="curve" smooth="yes"/>
      <point x="606" y="596"/>
      <point x="685" y="511"/>
      <point x="696" y="353" type="curve" smooth="yes"/>
      <point x="700" y="302"/>
      <point x="697" y="253"/>
      <point x="696" y="234" type="curve" smooth="yes"/>
      <point x="696" y="205"/>
      <point x="688" y="148"/>
      <point x="633" y="148" type="curve" smooth="yes"/>
      <point x="596" y="148"/>
      <point x="569" y="176"/>
      <point x="569" y="233" type="curve" smooth="yes"/>
      <point x="569" y="447" type="line" smooth="yes"/>
      <point x="569" y="461"/>
      <point x="560" y="470"/>
      <point x="547" y="470" type="curve" smooth="yes"/>
      <point x="520" y="470" type="line" smooth="yes"/>
      <point x="507" y="470"/>
      <point x="498" y="461"/>
      <point x="498" y="447" type="curve" smooth="yes"/>
      <point x="498" y="430" type="line"/>
      <point x="479" y="453"/>
      <point x="450" y="478"/>
      <point x="395" y="478" type="curve" smooth="yes"/>
      <point x="297" y="478"/>
      <point x="233" y="403"/>
      <point x="233" y="273" type="curve" smooth="yes"/>
      <point x="233" y="143"/>
      <point x="297" y="69"/>
      <point x="396" y="69" type="curve" smooth="yes"/>
      <point x="475" y="69"/>
      <point x="507" y="109"/>
      <point x="522" y="136" type="curve"/>
      <point x="533" y="121"/>
      <point x="567" y="79"/>
      <point x="633" y="79" type="curve" smooth="yes"/>
      <point x="713" y="79"/>
      <point x="762" y="130"/>
      <point x="768" y="227" type="curve" smooth="yes"/>
      <point x="769" y="246"/>
      <point x="771" y="307"/>
      <point x="768" y="358" type="curve" smooth="yes"/>
      <point x="758" y="550"/>
      <point x="648" y="665"/>
      <point x="406" y="665" type="curve" smooth="yes"/>
      <point x="198" y="665"/>
      <point x="80" y="542"/>
      <point x="60" y="358" type="curve" smooth="yes"/>
      <point x="56" y="324"/>
      <point x="56" y="224"/>
      <point x="60" y="187" type="curve" smooth="yes"/>
      <point x="80" y="-5"/>
      <point x="197" y="-118"/>
      <point x="410" y="-118" type="curve" smooth="yes"/>
    </contour>
    <contour>
      <point x="332" y="138"/>
      <point x="305" y="200"/>
      <point x="305" y="273" type="curve" smooth="yes"/>
      <point x="305" y="355"/>
      <point x="332" y="410"/>
      <point x="401" y="410" type="curve" smooth="yes"/>
      <point x="474" y="410"/>
      <point x="498" y="355"/>
      <point x="498" y="273" type="curve" smooth="yes"/>
      <point x="498" y="191"/>
      <point x="474" y="138"/>
      <point x="401" y="138" type="curve" smooth="yes"/>
    </contour>
  </outline>
</glyph>
<glyph name="F" format="1">
  <advance width="583"/>
  <unicode hex="0046"/>
  <outline>
    <contour>
      <point x="157" y="0" type="line" smooth="yes"/>
      <point x="171" y="0"/>
      <point x="180" y="10"/>
      <point x="180" y="23" type="curve" smooth="yes"/>
      <point x="180" y="295" type="line"/>
      <point x="496" y="295" type="line" smooth="yes"/>
      <point x="510" y="295"/>
      <point x="519" y="305"/>
      <point x="519" y="318" type="curve" smooth="yes"/>
      <point x="519" y="356" type="line" smooth="yes"/>
      <point x="519" y="370"/>
      <point x="510" y="379"/>
      <point x="496" y="379" type="curve" smooth="yes"/>
      <point x="180" y="379" type="line"/>
      <point x="180" y="616" type="line"/>
      <point x="516" y="616" type="line" smooth="yes"/>
      <point x="530" y="616"/>
      <point x="539" y="625"/>
      <point x="539" y="639" type="curve" smooth="yes"/>
      <point x="539" y="676" type="line" smooth="yes"/>
      <point x="539" y="691"/>
      <point x="530" y="700"/>
      <point x="516" y="700" type="curve" smooth="yes"/>
      <point x="110" y="700" type="line" smooth="yes"/>
      <point x="97" y="700"/>
      <point x="87" y="691"/>
      <point x="87" y="676" type="curve" smooth="yes"/>
      <point x="87" y="23" type="line" smooth="yes"/>
      <point x="87" y="10"/>
      <point x="97" y="0"/>
      <point x="110" y="0" type="curve" smooth="yes"/>
    </contour>
  </outline>
</glyph>
<glyph name="H" format="1">
  <advance width="712"/>
  <unicode hex="0048"/>
  <outline>
    <contour>
      <point x="158" y="0" type="line" smooth="yes"/>
      <point x="172" y="0"/>
      <point x="181" y="10"/>
      <point x="181" y="23" type="curve" smooth="yes"/>
      <point x="181" y="311" type="line"/>
      <point x="530" y="311" type="line"/>
      <point x="530" y="23" type="line" smooth="yes"/>
      <point x="530" y="10"/>
      <point x="539" y="0"/>
      <point x="553" y="0" type="curve" smooth="yes"/>
      <point x="600" y="0" type="line" smooth="yes"/>
      <point x="615" y="0"/>
      <point x="624" y="10"/>
      <point x="624" y="23" type="curve" smooth="yes"/>
      <point x="624" y="676" type="line" smooth="yes"/>
      <point x="624" y="691"/>
      <point x="615" y="700"/>
      <point x="600" y="700" type="curve" smooth="yes"/>
      <point x="553" y="700" type="line" smooth="yes"/>
      <point x="539" y="700"/>
      <point x="530" y="691"/>
      <point x="530" y="676" type="curve" smooth="yes"/>
      <point x="530" y="398" type="line"/>
      <point x="181" y="398" type="line"/>
      <point x="181" y="676" type="line" smooth="yes"/>
      <point x="181" y="691"/>
      <point x="172" y="700"/>
      <point x="158" y="700" type="curve" smooth="yes"/>
      <point x="110" y="700" type="line" smooth="yes"/>
      <point x="97" y="700"/>
      <point x="87" y="691"/>
      <point x="87" y="676" type="curve" smooth="yes"/>
      <point x="87" y="23" type="line" smooth="yes"/>
      <point x="87" y="9"/>
      <point x="97" y="0"/>
      <point x="110" y="0" type="curve" smooth="yes"/>
    </contour>
  </outline>
</glyph>
<glyph name="c" format="1">
  <advance width="550"/>
  <unicode hex="0063"/>
  <outline>
    <contour>
      <point x="437" y="-10"/>
      <point x="501" y="88"/>
      <point x="504" y="155" type="curve" smooth="yes"/>
      <point x="505" y="168"/>
      <point x="494" y="178"/>
      <point x="481" y="178" type="curve" smooth="yes"/>
      <point x="437" y="178" type="line" smooth="yes"/>
      <point x="423" y="178"/>
      <point x="418" y="172"/>
      <point x="412" y="157" type="curve" smooth="yes"/>
      <point x="388" y="90"/>
      <point x="346" y="67"/>
      <point x="284" y="67" type="curve" smooth="yes"/>
      <point x="203" y="67"/>
      <point x="147" y="114"/>
      <point x="144" y="225" type="curve" smooth="yes"/>
      <point x="143" y="245"/>
      <point x="143" y="274"/>
      <point x="144" y="295" type="curve" smooth="yes"/>
      <point x="147" y="406"/>
      <point x="203" y="453"/>
      <point x="284" y="453" type="curve" smooth="yes"/>
      <point x="345" y="453"/>
      <point x="388" y="430"/>
      <point x="412" y="363" type="curve" smooth="yes"/>
      <point x="418" y="348"/>
      <point x="423" y="342"/>
      <point x="437" y="342" type="curve" smooth="yes"/>
      <point x="481" y="342" type="line" smooth="yes"/>
      <point x="494" y="342"/>
      <point x="505" y="352"/>
      <point x="504" y="365" type="curve" smooth="yes"/>
      <point x="501" y="434"/>
      <point x="436" y="530"/>
      <point x="283" y="530" type="curve" smooth="yes"/>
      <point x="140" y="530"/>
      <point x="57" y="444"/>
      <point x="52" y="300" type="curve" smooth="yes"/>
      <point x="51" y="280"/>
      <point x="51" y="240"/>
      <point x="52" y="220" type="curve" smooth="yes"/>
      <point x="57" y="76"/>
      <point x="140" y="-10"/>
      <point x="283" y="-10" type="curve" smooth="yes"/>
    </contour>
  </outline>
</glyph>
<glyph name="f" format="1">
  <advance width="382"/>
  <unicode hex="0066"/>
  <outline>
    <contour>
      <point x="193" y="0" type="line" smooth="yes"/>
      <point x="206" y="0"/>
      <point x="216" y="10"/>
      <point x="216" y="23" type="curve" smooth="yes"/>
      <point x="216" y="443" type="line"/>
      <point x="345" y="443" type="line" smooth="yes"/>
      <point x="358" y="443"/>
      <point x="367" y="452"/>
      <point x="367" y="465" type="curve" smooth="yes"/>
      <point x="367" y="497" type="line" smooth="yes"/>
      <point x="367" y="511"/>
      <point x="358" y="520"/>
      <point x="345" y="520" type="curve" smooth="yes"/>
      <point x="216" y="520" type="line"/>
      <point x="216" y="565" type="line" smooth="yes"/>
      <point x="216" y="628"/>
      <point x="233" y="663"/>
      <point x="298" y="663" type="curve" smooth="yes"/>
      <point x="355" y="663" type="line" smooth="yes"/>
      <point x="368" y="663"/>
      <point x="377" y="672"/>
      <point x="377" y="685" type="curve" smooth="yes"/>
      <point x="377" y="717" type="line" smooth="yes"/>
      <point x="377" y="731"/>
      <point x="368" y="740"/>
      <point x="355" y="740" type="curve" smooth="yes"/>
      <point x="296" y="740" type="line" smooth="yes"/>
      <point x="170" y="740"/>
      <point x="127" y="672"/>
      <point x="127" y="570" type="curve" smooth="yes"/>
      <point x="127" y="520" type="line"/>
      <point x="41" y="520" type="line" smooth="yes"/>
      <point x="28" y="520"/>
      <point x="18" y="511"/>
      <point x="18" y="497" type="curve" smooth="yes"/>
      <point x="18" y="465" type="line" smooth="yes"/>
      <point x="18" y="452"/>
      <point x="28" y="443"/>
      <point x="41" y="443" type="curve" smooth="yes"/>
      <point x="127" y="443" type="line"/>
      <point x="127" y="23" type="line" smooth="yes"/>
      <point x="127" y="10"/>
      <point x="136" y="0"/>
      <point x="149" y="0" type="curve" smooth="yes"/>
    </contour>
  </outline>
</glyph>
<glyph name="bar" format="1">
  <advance width="231"/>
  <unicode hex="007C"/>
  <outline>
    <contour>
      <point x="133" y="-208" type="line" smooth="yes"/>
      <point x="147" y="-208"/>
      <point x="156" y="-199"/>
      <point x="156" y="-185" type="curve" smooth="yes"/>
      <point x="156" y="873" type="line" smooth="yes"/>
      <point x="156" y="887"/>
      <point x="147" y="896"/>
      <point x="133" y="896" type="curve" smooth="yes"/>
      <point x="97" y="896" type="line"/>
      <point x="84" y="896"/>
      <point x="74" y="887"/>
      <point x="74" y="873" type="curve" smooth="yes"/>
      <point x="74" y="-185" type="line" smooth="yes"/>
      <point x="74" y="-199"/>
      <point x="84" y="-208"/>
      <point x="97" y="-208" type="curve" smooth="yes"/>
    </contour>
  </outline>
</glyph>
<glyph name="cent" format="1">
  <advance width="558"/>
  <unicode hex="00A2"/>
  <outline>
    <contour>
      <point x="299" y="-100" type="line"/>
      <point x="312" y="-100"/>
      <point x="322" y="-91"/>
      <point x="322" y="-77" type="curve"/>
      <point x="322" y="-7" type="line"/>
      <point x="460" y="9"/>
      <point x="506" y="108"/>
      <point x="508" y="155" type="curve" smooth="yes"/>
      <point x="509" y="168"/>
      <point x="498" y="178"/>
      <point x="485" y="178" type="curve"/>
      <point x="441" y="178" type="line"/>
      <point x="427" y="178"/>
      <point x="422" y="172"/>
      <point x="416" y="157" type="curve" smooth="yes"/>
      <point x="392" y="90"/>
      <point x="343" y="67"/>
      <point x="281" y="67" type="curve" smooth="yes"/>
      <point x="208" y="67"/>
      <point x="151" y="114"/>
      <point x="148" y="225" type="curve" smooth="yes"/>
      <point x="147" y="245"/>
      <point x="147" y="274"/>
      <point x="148" y="295" type="curve" smooth="yes"/>
      <point x="151" y="406"/>
      <point x="208" y="453"/>
      <point x="281" y="453" type="curve" smooth="yes"/>
      <point x="343" y="453"/>
      <point x="392" y="430"/>
      <point x="416" y="363" type="curve" smooth="yes"/>
      <point x="422" y="348"/>
      <point x="427" y="342"/>
      <point x="441" y="342" type="curve"/>
      <point x="485" y="342" type="line"/>
      <point x="498" y="342"/>
      <point x="509" y="352"/>
      <point x="508" y="365" type="curve" smooth="yes"/>
      <point x="506" y="412"/>
      <point x="459" y="510"/>
      <point x="322" y="527" type="curve"/>
      <point x="322" y="587" type="line"/>
      <point x="322" y="601"/>
      <point x="312" y="610"/>
      <point x="299" y="610" type="curve"/>
      <point x="261" y="610" type="line"/>
      <point x="248" y="610"/>
      <point x="238" y="601"/>
      <point x="238" y="587" type="curve"/>
      <point x="238" y="526" type="line"/>
      <point x="127" y="511"/>
      <point x="59" y="428"/>
      <point x="56" y="300" type="curve" smooth="yes"/>
      <point x="55" y="280"/>
      <point x="55" y="240"/>
      <point x="56" y="220" type="curve" smooth="yes"/>
      <point x="60" y="91"/>
      <point x="127" y="9"/>
      <point x="238" y="-6" type="curve"/>
      <point x="238" y="-77" type="line"/>
      <point x="238" y="-91"/>
      <point x="248" y="-100"/>
      <point x="261" y="-100" type="curve"/>
    </contour>
  </outline>
</glyph>
<glyph name="dieresis" format="1">
  <advance width="398"/>
  <unicode hex="00A8"/>
  <outline>
    <contour>
      <point x="309" y="622" type="line" smooth="yes"/>
      <point x="322" y="622"/>
      <point x="332" y="631"/>
      <point x="332" y="644" type="curve" smooth="yes"/>
      <point x="332" y="696" type="line" smooth="yes"/>
      <point x="332" y="709"/>
      <point x="322" y="719"/>
      <point x="309" y="719" type="curve" smooth="yes"/>
      <point x="256" y="719" type="line" smooth="yes"/>
      <point x="243" y="719"/>
      <point x="234" y="709"/>
      <point x="234" y="696" type="curve" smooth="yes"/>
      <point x="234" y="644" type="line" smooth="yes"/>
      <point x="234" y="631"/>
      <point x="243" y="622"/>
      <point x="256" y="622" type="curve" smooth="yes"/>
    </contour>
    <contour>
      <point x="142" y="622" type="line" smooth="yes"/>
      <point x="155" y="622"/>
      <point x="165" y="631"/>
      <point x="165" y="644" type="curve" smooth="yes"/>
      <point x="165" y="696" type="line" smooth="yes"/>
      <point x="165" y="709"/>
      <point x="155" y="719"/>
      <point x="142" y="719" type="curve" smooth="yes"/>
      <point x="89" y="719" type="line" smooth="yes"/>
      <point x="76" y="719"/>
      <point x="67" y="709"/>
      <point x="67" y="696" type="curve" smooth="yes"/>
      <point x="67" y="644" type="line" smooth="yes"/>
      <point x="67" y="631"/>
      <point x="76" y="622"/>
      <point x="89" y="622" type="curve" smooth="yes"/>
    </contour>
  </outline>
</glyph>
<glyph name="ordfeminine" format="1">
  <advance width="364"/>
  <unicode hex="00AA"/>
  <outline>
    <contour>
      <point x="181" y="429"/>
      <point x="216" y="444"/>
      <point x="227" y="463" type="curve"/>
      <point x="227" y="455" type="line" smooth="yes"/>
      <point x="227" y="443"/>
      <point x="236" y="434"/>
      <point x="248" y="434" type="curve" smooth="yes"/>
      <point x="277" y="434" type="line" smooth="yes"/>
      <point x="289" y="434"/>
      <point x="298" y="443"/>
      <point x="298" y="455" type="curve" smooth="yes"/>
      <point x="298" y="597" type="line" smooth="yes"/>
      <point x="298" y="662"/>
      <point x="256" y="705"/>
      <point x="185" y="705" type="curve" smooth="yes"/>
      <point x="115" y="705"/>
      <point x="71" y="663"/>
      <point x="69" y="642" type="curve" smooth="yes"/>
      <point x="68" y="630"/>
      <point x="78" y="625"/>
      <point x="89" y="625" type="curve" smooth="yes"/>
      <point x="118" y="625" type="line" smooth="yes"/>
      <point x="139" y="625"/>
      <point x="143" y="645"/>
      <point x="182" y="645" type="curve" smooth="yes"/>
      <point x="225" y="645"/>
      <point x="227" y="619"/>
      <point x="227" y="610" type="curve"/>
      <point x="165" y="601" type="line" smooth="yes"/>
      <point x="96" y="591"/>
      <point x="52" y="558"/>
      <point x="52" y="506" type="curve" smooth="yes"/>
      <point x="52" y="463"/>
      <point x="88" y="429"/>
      <point x="146" y="429" type="curve" smooth="yes"/>
    </contour>
    <contour>
      <point x="139" y="487"/>
      <point x="123" y="495"/>
      <point x="123" y="509" type="curve" smooth="yes"/>
      <point x="123" y="527"/>
      <point x="133" y="542"/>
      <point x="183" y="550" type="curve" smooth="yes"/>
      <point x="227" y="557" type="line"/>
      <point x="227" y="519"/>
      <point x="208" y="487"/>
      <point x="160" y="487" type="curve" smooth="yes"/>
    </contour>
  </outline>
</glyph>
<glyph name="periodcentered" format="1">
  <advance width="330"/>
  <unicode hex="00B7"/>
  <outline>
    <contour>
      <point x="223" y="202"/>
      <point x="271" y="250"/>
      <point x="271" y="308" type="curve" smooth="yes"/>
      <point x="271" y="367"/>
      <point x="223" y="415"/>
      <point x="165" y="415" type="curve" smooth="yes"/>
      <point x="106" y="415"/>
      <point x="58" y="367"/>
      <point x="58" y="308" type="curve" smooth="yes"/>
      <point x="58" y="250"/>
      <point x="106" y="202"/>
      <point x="165" y="202" type="curve" smooth="yes"/>
    </contour>
  </outline>
</glyph>
<glyph name="ordmasculine" format="1">
  <advance width="359"/>
  <unicode hex="00BA"/>
  <outline>
    <contour>
      <point x="254" y="429"/>
      <point x="301" y="466"/>
      <point x="305" y="540" type="curve" smooth="yes"/>
      <point x="306" y="550"/>
      <point x="306" y="584"/>
      <point x="305" y="594" type="curve" smooth="yes"/>
      <point x="301" y="668"/>
      <point x="248" y="705"/>
      <point x="180" y="705" type="curve" smooth="yes"/>
      <point x="112" y="705"/>
      <point x="59" y="668"/>
      <point x="55" y="594" type="curve" smooth="yes"/>
      <point x="54" y="584"/>
      <point x="54" y="550"/>
      <point x="55" y="540" type="curve" smooth="yes"/>
      <point x="59" y="466"/>
      <point x="106" y="429"/>
      <point x="180" y="429" type="curve" smooth="yes"/>
    </contour>
    <contour>
      <point x="146" y="491"/>
      <point x="129" y="509"/>
      <point x="127" y="545" type="curve" smooth="yes"/>
      <point x="126" y="555"/>
      <point x="126" y="579"/>
      <point x="127" y="589" type="curve" smooth="yes"/>
      <point x="129" y="622"/>
      <point x="146" y="643"/>
      <point x="180" y="643" type="curve" smooth="yes"/>
      <point x="214" y="643"/>
      <point x="231" y="622"/>
      <point x="233" y="589" type="curve" smooth="yes"/>
      <point x="234" y="579"/>
      <point x="234" y="555"/>
      <point x="233" y="545" type="curve" smooth="yes"/>
      <point x="231" y="509"/>
      <point x="214" y="491"/>
      <point x="180" y="491" type="curve" smooth="yes"/>
    </contour>
  </outline>
</glyph>
<glyph name="Ccedilla" format="1">
  <advance width="665"/>
  <unicode hex="00C7"/>
  <outline>
    <contour>
      <point x="397" y="-221"/>
      <point x="429" y="-181"/>
      <point x="429" y="-132" type="curve" smooth="yes"/>
      <point x="429" y="-83"/>
      <point x="397" y="-48"/>
      <point x="352" y="-48" type="curve" smooth="yes"/>
      <point x="339" y="-48"/>
      <point x="324" y="-51"/>
      <point x="316" y="-56" type="curve"/>
      <point x="338" y="-10" type="line"/>
      <point x="524" y="-10"/>
      <point x="612" y="103"/>
      <point x="616" y="213" type="curve" smooth="yes"/>
      <point x="617" y="225"/>
      <point x="607" y="233"/>
      <point x="595" y="233" type="curve"/>
      <point x="545" y="233" type="line"/>
      <point x="532" y="233"/>
      <point x="524" y="228"/>
      <point x="520" y="211" type="curve" smooth="yes"/>
      <point x="496" y="105"/>
      <point x="432" y="73"/>
      <point x="338" y="73" type="curve" smooth="yes"/>
      <point x="229" y="73"/>
      <point x="161" y="130"/>
      <point x="157" y="266" type="curve" smooth="yes"/>
      <point x="155" y="323"/>
      <point x="155" y="379"/>
      <point x="157" y="434" type="curve" smooth="yes"/>
      <point x="161" y="570"/>
      <point x="229" y="628"/>
      <point x="338" y="628" type="curve" smooth="yes"/>
      <point x="432" y="628"/>
      <point x="496" y="596"/>
      <point x="520" y="489" type="curve" smooth="yes"/>
      <point x="524" y="472"/>
      <point x="532" y="467"/>
      <point x="545" y="467" type="curve"/>
      <point x="595" y="467" type="line"/>
      <point x="607" y="467"/>
      <point x="617" y="475"/>
      <point x="616" y="487" type="curve" smooth="yes"/>
      <point x="612" y="597"/>
      <point x="524" y="710"/>
      <point x="338" y="710" type="curve" smooth="yes"/>
      <point x="155" y="710"/>
      <point x="67" y="600"/>
      <point x="61" y="439" type="curve" smooth="yes"/>
      <point x="59" y="382"/>
      <point x="59" y="315"/>
      <point x="61" y="261" type="curve" smooth="yes"/>
      <point x="66" y="116"/>
      <point x="136" y="14"/>
      <point x="282" y="-6" type="curve"/>
      <point x="262" y="-53" type="line"/>
      <point x="257" y="-64"/>
      <point x="251" y="-75"/>
      <point x="258" y="-83" type="curve"/>
      <point x="275" y="-101" type="line"/>
      <point x="290" y="-117"/>
      <point x="305" y="-98"/>
      <point x="334" y="-98" type="curve" smooth="yes"/>
      <point x="357" y="-98"/>
      <point x="375" y="-111"/>
      <point x="375" y="-133" type="curve" smooth="yes"/>
      <point x="375" y="-156"/>
      <point x="356" y="-171"/>
      <point x="334" y="-171" type="curve" smooth="yes"/>
      <point x="292" y="-171"/>
      <point x="285" y="-139"/>
      <point x="268" y="-155" type="curve"/>
      <point x="253" y="-169" type="line"/>
      <point x="236" y="-185"/>
      <point x="278" y="-219"/>
      <point x="334" y="-220" type="curve" smooth="yes"/>
    </contour>
  </outline>
</glyph>
<glyph name="Scedilla" format="1">
  <advance width="620"/>
  <unicode hex="015E"/>
  <outline>
    <contour>
      <point x="371" y="-221"/>
      <point x="403" y="-181"/>
      <point x="403" y="-132" type="curve" smooth="yes"/>
      <point x="403" y="-83"/>
      <point x="372" y="-48"/>
      <point x="326" y="-48" type="curve" smooth="yes"/>
      <point x="313" y="-48"/>
      <point x="298" y="-51"/>
      <point x="290" y="-56" type="curve"/>
      <point x="312" y="-10" type="line"/>
      <point x="472" y="-10"/>
      <point x="576" y="64"/>
      <point x="576" y="189" type="curve" smooth="yes"/>
      <point x="576" y="302"/>
      <point x="504" y="344"/>
      <point x="346" y="388" type="curve" smooth="yes"/>
      <point x="211" y="428"/>
      <point x="158" y="453"/>
      <point x="158" y="523" type="curve" smooth="yes"/>
      <point x="158" y="594"/>
      <point x="218" y="628"/>
      <point x="306" y="628" type="curve" smooth="yes"/>
      <point x="392" y="628"/>
      <point x="451" y="585"/>
      <point x="459" y="529" type="curve" smooth="yes"/>
      <point x="463" y="514"/>
      <point x="475" y="509"/>
      <point x="484" y="509" type="curve"/>
      <point x="534" y="509" type="line"/>
      <point x="547" y="509"/>
      <point x="555" y="519"/>
      <point x="555" y="530" type="curve" smooth="yes"/>
      <point x="552" y="608"/>
      <point x="471" y="710"/>
      <point x="306" y="710" type="curve" smooth="yes"/>
      <point x="152" y="710"/>
      <point x="63" y="629"/>
      <point x="63" y="522" type="curve" smooth="yes"/>
      <point x="63" y="408"/>
      <point x="132" y="363"/>
      <point x="277" y="321" type="curve" smooth="yes"/>
      <point x="418" y="279"/>
      <point x="480" y="256"/>
      <point x="480" y="186" type="curve" smooth="yes"/>
      <point x="480" y="117"/>
      <point x="427" y="73"/>
      <point x="311" y="73" type="curve" smooth="yes"/>
      <point x="197" y="73"/>
      <point x="148" y="127"/>
      <point x="138" y="176" type="curve" smooth="yes"/>
      <point x="134" y="187"/>
      <point x="127" y="196"/>
      <point x="113" y="196" type="curve"/>
      <point x="64" y="196" type="line"/>
      <point x="52" y="196"/>
      <point x="43" y="187"/>
      <point x="43" y="176" type="curve" smooth="yes"/>
      <point x="45" y="91"/>
      <point x="120" y="10"/>
      <point x="256" y="-6" type="curve"/>
      <point x="236" y="-53" type="line"/>
      <point x="232" y="-64"/>
      <point x="225" y="-75"/>
      <point x="233" y="-83" type="curve"/>
      <point x="249" y="-101" type="line"/>
      <point x="264" y="-117"/>
      <point x="279" y="-98"/>
      <point x="308" y="-98" type="curve" smooth="yes"/>
      <point x="331" y="-98"/>
      <point x="349" y="-111"/>
      <point x="349" y="-133" type="curve" smooth="yes"/>
      <point x="349" y="-156"/>
      <point x="331" y="-171"/>
      <point x="308" y="-171" type="curve" smooth="yes"/>
      <point x="266" y="-171"/>
      <point x="259" y="-139"/>
      <point x="242" y="-155" type="curve"/>
      <point x="227" y="-169" type="line"/>
      <point x="210" y="-185"/>
      <point x="252" y="-219"/>
      <point x="308" y="-220" type="curve" smooth="yes"/>
    </contour>
  </outline>
</glyph>
<glyph name="Tbar" format="1">
  <advance width="586"/>
  <unicode hex="0166"/>
  <outline>
    <contour>
      <point x="317" y="0" type="line" smooth="yes"/>
      <point x="331" y="0"/>
      <point x="340" y="10"/>
      <point x="340" y="23" type="curve" smooth="yes"/>
      <point x="340" y="335" type="line"/>
      <point x="453" y="335" type="line" smooth="yes"/>
      <point x="467" y="335"/>
      <point x="476" y="344"/>
      <point x="476" y="358" type="curve" smooth="yes"/>
      <point x="476" y="382" type="line" smooth="yes"/>
      <point x="476" y="396"/>
      <point x="467" y="406"/>
      <point x="453" y="406" type="curve" smooth="yes"/>
      <point x="340" y="406" type="line"/>
      <point x="340" y="614" type="line"/>
      <point x="532" y="614" type="line" smooth="yes"/>
      <point x="546" y="614"/>
      <point x="556" y="624"/>
      <point x="556" y="637" type="curve" smooth="yes"/>
      <point x="556" y="676" type="line" smooth="yes"/>
      <point x="556" y="691"/>
      <point x="546" y="700"/>
      <point x="532" y="700" type="curve" smooth="yes"/>
      <point x="53" y="700" type="line" smooth="yes"/>
      <point x="40" y="700"/>
      <point x="30" y="691"/>
      <point x="30" y="676" type="curve" smooth="yes"/>
      <point x="30" y="637" type="line" smooth="yes"/>
      <point x="30" y="624"/>
      <point x="40" y="614"/>
      <point x="53" y="614" type="curve" smooth="yes"/>
      <point x="246" y="614" type="line"/>
      <point x="246" y="406" type="line"/>
      <point x="132" y="406" type="line" smooth="yes"/>
      <point x="119" y="406"/>
      <point x="109" y="396"/>
      <point x="109" y="382" type="curve" smooth="yes"/>
      <point x="109" y="358" type="line" smooth="yes"/>
      <point x="109" y="344"/>
      <point x="119" y="335"/>
      <point x="132" y="335" type="curve" smooth="yes"/>
      <point x="246" y="335" type="line"/>
      <point x="246" y="23" type="line" smooth="yes"/>
      <point x="246" y="10"/>
      <point x="255" y="0"/>
      <point x="268" y="0" type="curve" smooth="yes"/>
    </contour>
  </outline>
</glyph>
<glyph name="tbar" format="1">
  <advance width="395"/>
  <unicode hex="0167"/>
  <outline>
    <contour>
      <point x="347" y="0" type="line" smooth="yes"/>
      <point x="360" y="0"/>
      <point x="370" y="10"/>
      <point x="370" y="23" type="curve" smooth="yes"/>
      <point x="370" y="56" type="line" smooth="yes"/>
      <point x="370" y="70"/>
      <point x="360" y="79"/>
      <point x="347" y="79" type="curve" smooth="yes"/>
      <point x="287" y="79" type="line" smooth="yes"/>
      <point x="232" y="79"/>
      <point x="213" y="117"/>
      <point x="213" y="182" type="curve" smooth="yes"/>
      <point x="213" y="298" type="line"/>
      <point x="337" y="298" type="line" smooth="yes"/>
      <point x="351" y="298"/>
      <point x="360" y="307"/>
      <point x="360" y="320" type="curve" smooth="yes"/>
      <point x="360" y="341" type="line" smooth="yes"/>
      <point x="360" y="354"/>
      <point x="351" y="363"/>
      <point x="337" y="363" type="curve" smooth="yes"/>
      <point x="213" y="363" type="line"/>
      <point x="213" y="454" type="line"/>
      <point x="337" y="454" type="line" smooth="yes"/>
      <point x="351" y="454"/>
      <point x="360" y="464"/>
      <point x="360" y="477" type="curve" smooth="yes"/>
      <point x="360" y="497" type="line" smooth="yes"/>
      <point x="360" y="511"/>
      <point x="351" y="520"/>
      <point x="337" y="520" type="curve" smooth="yes"/>
      <point x="213" y="520" type="line"/>
      <point x="213" y="687" type="line" smooth="yes"/>
      <point x="213" y="701"/>
      <point x="203" y="710"/>
      <point x="190" y="710" type="curve" smooth="yes"/>
      <point x="147" y="710" type="line" smooth="yes"/>
      <point x="134" y="710"/>
      <point x="124" y="701"/>
      <point x="124" y="687" type="curve" smooth="yes"/>
      <point x="124" y="520" type="line"/>
      <point x="46" y="520" type="line" smooth="yes"/>
      <point x="33" y="520"/>
      <point x="23" y="511"/>
      <point x="23" y="497" type="curve" smooth="yes"/>
      <point x="23" y="477" type="line" smooth="yes"/>
      <point x="23" y="464"/>
      <point x="33" y="454"/>
      <point x="46" y="454" type="curve" smooth="yes"/>
      <point x="124" y="454" type="line"/>
      <point x="124" y="363" type="line"/>
      <point x="46" y="363" type="line" smooth="yes"/>
      <point x="33" y="363"/>
      <point x="23" y="354"/>
      <point x="23" y="341" type="curve" smooth="yes"/>
      <point x="23" y="320" type="line" smooth="yes"/>
      <point x="23" y="307"/>
      <point x="33" y="298"/>
      <point x="46" y="298" type="curve" smooth="yes"/>
      <point x="124" y="298" type="line"/>
      <point x="124" y="175" type="line" smooth="yes"/>
      <point x="124" y="69"/>
      <point x="167" y="0"/>
      <point x="279" y="0" type="curve" smooth="yes"/>
    </contour>
  </outline>
</glyph>
<glyph name="longs" format="1">
  <advance width="291"/>
  <unicode hex="017F"/>
  <outline>
    <contour>
      <point x="193" y="0" type="line" smooth="yes"/>
      <point x="206" y="0"/>
      <point x="216" y="10"/>
      <point x="216" y="23" type="curve" smooth="yes"/>
      <point x="216" y="565" type="line"/>
      <point x="216" y="620"/>
      <point x="225" y="663"/>
      <point x="298" y="663" type="curve" smooth="yes"/>
      <point x="355" y="663" type="line" smooth="yes"/>
      <point x="368" y="663"/>
      <point x="377" y="672"/>
      <point x="377" y="685" type="curve" smooth="yes"/>
      <point x="377" y="717" type="line" smooth="yes"/>
      <point x="377" y="731"/>
      <point x="368" y="740"/>
      <point x="355" y="740" type="curve" smooth="yes"/>
      <point x="296" y="740" type="line" smooth="yes"/>
      <point x="170" y="740"/>
      <point x="127" y="672"/>
      <point x="127" y="566" type="curve" smooth="yes"/>
      <point x="127" y="520" type="line"/>
      <point x="41" y="520" type="line" smooth="yes"/>
      <point x="28" y="520"/>
      <point x="18" y="511"/>
      <point x="18" y="497" type="curve" smooth="yes"/>
      <point x="18" y="465" type="line" smooth="yes"/>
      <point x="18" y="452"/>
      <point x="28" y="443"/>
      <point x="41" y="443" type="curve" smooth="yes"/>
      <point x="127" y="443" type="line"/>
      <point x="127" y="23" type="line" smooth="yes"/>
      <point x="127" y="10"/>
      <point x="136" y="0"/>
      <point x="149" y="0" type="curve" smooth="yes"/>
    </contour>
  </outline>
</glyph>
<glyph name="caron" format="1">
  <advance width="431"/>
  <unicode hex="02C7"/>
  <outline>
    <contour>
      <point x="230" y="595" type="line" smooth="yes"/>
      <point x="241" y="595"/>
      <point x="249" y="596"/>
      <point x="263" y="610" type="curve" smooth="yes"/>
      <point x="354" y="701" type="line" smooth="yes"/>
      <point x="361" y="708"/>
      <point x="365" y="714"/>
      <point x="365" y="720" type="curve" smooth="yes"/>
      <point x="365" y="728"/>
      <point x="361" y="732"/>
      <point x="351" y="732" type="curve" smooth="yes"/>
      <point x="326" y="732" type="line" smooth="yes"/>
      <point x="317" y="732"/>
      <point x="304" y="729"/>
      <point x="298" y="725" type="curve" smooth="yes"/>
      <point x="216" y="668" type="line"/>
      <point x="134" y="725" type="line" smooth="yes"/>
      <point x="128" y="729"/>
      <point x="115" y="732"/>
      <point x="107" y="732" type="curve" smooth="yes"/>
      <point x="81" y="732" type="line" smooth="yes"/>
      <point x="71" y="732"/>
      <point x="67" y="728"/>
      <point x="67" y="720" type="curve" smooth="yes"/>
      <point x="67" y="714"/>
      <point x="71" y="708"/>
      <point x="78" y="701" type="curve" smooth="yes"/>
      <point x="169" y="610" type="line" smooth="yes"/>
      <point x="183" y="596"/>
      <point x="191" y="595"/>
      <point x="202" y="595" type="curve" smooth="yes"/>
    </contour>
  </outline>
</glyph>
<glyph name="tilde" format="1">
  <advance width="400"/>
  <unicode hex="02DC"/>
  <outline>
    <contour>
      <point x="303" y="590"/>
      <point x="334" y="638"/>
      <point x="334" y="678" type="curve" smooth="yes"/>
      <point x="334" y="686"/>
      <point x="328" y="694"/>
      <point x="318" y="694" type="curve" smooth="yes"/>
      <point x="287" y="694" type="line" smooth="yes"/>
      <point x="265" y="694"/>
      <point x="269" y="664"/>
      <point x="244" y="664" type="curve" smooth="yes"/>
      <point x="214" y="664"/>
      <point x="198" y="698"/>
      <point x="149" y="698" type="curve" smooth="yes"/>
      <point x="96" y="698"/>
      <point x="67" y="651"/>
      <point x="67" y="611" type="curve" smooth="yes"/>
      <point x="67" y="603"/>
      <point x="74" y="595"/>
      <point x="84" y="595" type="curve" smooth="yes"/>
      <point x="114" y="595" type="line" smooth="yes"/>
      <point x="135" y="595"/>
      <point x="132" y="624"/>
      <point x="157" y="624" type="curve" smooth="yes"/>
      <point x="187" y="624"/>
      <point x="203" y="590"/>
      <point x="251" y="590" type="curve" smooth="yes"/>
    </contour>
  </outline>
</glyph>
<glyph name="Zhe-cy" format="1">
  <advance width="707"/>
  <unicode hex="0416"/>
  <outline>
    <contour>
      <point x="98" y="0" type="line" smooth="yes"/>
      <point x="110" y="0"/>
      <point x="118" y="7"/>
      <point x="124" y="16" type="curve" smooth="yes"/>
      <point x="308" y="285" type="line"/>
      <point x="308" y="23" type="line" smooth="yes"/>
      <point x="308" y="10"/>
      <point x="318" y="0"/>
      <point x="331" y="0" type="curve" smooth="yes"/>
      <point x="375" y="0" type="line" smooth="yes"/>
      <point x="389" y="0"/>
      <point x="398" y="10"/>
      <point x="398" y="23" type="curve" smooth="yes"/>
      <point x="398" y="285" type="line"/>
      <point x="582" y="16" type="line" smooth="yes"/>
      <point x="588" y="7"/>
      <point x="596" y="0"/>
      <point x="608" y="0" type="curve" smooth="yes"/>
      <point x="661" y="0" type="line" smooth="yes"/>
      <point x="672" y="0"/>
      <point x="681" y="9"/>
      <point x="681" y="20" type="curve" smooth="yes"/>
      <point x="681" y="25"/>
      <point x="679" y="30"/>
      <point x="677" y="33" type="curve" smooth="yes"/>
      <point x="454" y="358" type="line"/>
      <point x="665" y="667" type="line" smooth="yes"/>
      <point x="667" y="670"/>
      <point x="669" y="675"/>
      <point x="669" y="680" type="curve" smooth="yes"/>
      <point x="669" y="691"/>
      <point x="660" y="700"/>
      <point x="649" y="700" type="curve" smooth="yes"/>
      <point x="597" y="700" type="line" smooth="yes"/>
      <point x="585" y="700"/>
      <point x="577" y="693"/>
      <point x="571" y="684" type="curve" smooth="yes"/>
      <point x="398" y="428" type="line"/>
      <point x="398" y="677" type="line" smooth="yes"/>
      <point x="398" y="691"/>
      <point x="389" y="700"/>
      <point x="375" y="700" type="curve" smooth="yes"/>
      <point x="331" y="700" type="line" smooth="yes"/>
      <point x="318" y="700"/>
      <point x="308" y="691"/>
      <point x="308" y="677" type="curve" smooth="yes"/>
      <point x="308" y="428" type="line"/>
      <point x="135" y="684" type="line" smooth="yes"/>
      <point x="129" y="693"/>
      <point x="121" y="700"/>
      <point x="109" y="700" type="curve" smooth="yes"/>
      <point x="57" y="700" type="line" smooth="yes"/>
      <point x="46" y="700"/>
      <point x="37" y="691"/>
      <point x="37" y="680" type="curve" smooth="yes"/>
      <point x="37" y="675"/>
      <point x="39" y="670"/>
      <point x="41" y="667" type="curve" smooth="yes"/>
      <point x="252" y="358" type="line"/>
      <point x="29" y="33" type="line" smooth="yes"/>
      <point x="27" y="30"/>
      <point x="25" y="25"/>
      <point x="25" y="20" type="curve" smooth="yes"/>
      <point x="25" y="9"/>
      <point x="34" y="0"/>
      <point x="45" y="0" type="curve" smooth="yes"/>
    </contour>
  </outline>
</glyph>
<glyph name="Ze-cy" format="1">
  <advance width="622"/>
  <unicode hex="0417"/>
  <outline>
    <contour>
      <point x="462" y="-10"/>
      <point x="568" y="75"/>
      <point x="568" y="196" type="curve" smooth="yes"/>
      <point x="568" y="268"/>
      <point x="534" y="331"/>
      <point x="464" y="364" type="curve"/>
      <point x="525" y="400"/>
      <point x="546" y="460"/>
      <point x="546" y="521" type="curve" smooth="yes"/>
      <point x="546" y="617"/>
      <point x="465" y="710"/>
      <point x="305" y="710" type="curve" smooth="yes"/>
      <point x="146" y="710"/>
      <point x="61" y="636"/>
      <point x="53" y="534" type="curve" smooth="yes"/>
      <point x="52" y="522"/>
      <point x="62" y="513"/>
      <point x="74" y="513" type="curve" smooth="yes"/>
      <point x="124" y="513" type="line" smooth="yes"/>
      <point x="137" y="513"/>
      <point x="144" y="519"/>
      <point x="148" y="533" type="curve" smooth="yes"/>
      <point x="164" y="600"/>
      <point x="222" y="628"/>
      <point x="304" y="628" type="curve" smooth="yes"/>
      <point x="385" y="628"/>
      <point x="450" y="585"/>
      <point x="450" y="518" type="curve" smooth="yes"/>
      <point x="450" y="438"/>
      <point x="393" y="403"/>
      <point x="308" y="403" type="curve" smooth="yes"/>
      <point x="236" y="403" type="line" smooth="yes"/>
      <point x="222" y="403"/>
      <point x="213" y="393"/>
      <point x="213" y="379" type="curve" smooth="yes"/>
      <point x="213" y="347" type="line" smooth="yes"/>
      <point x="213" y="333"/>
      <point x="222" y="323"/>
      <point x="236" y="323" type="curve" smooth="yes"/>
      <point x="312" y="323" type="line" smooth="yes"/>
      <point x="409" y="323"/>
      <point x="472" y="278"/>
      <point x="472" y="199" type="curve" smooth="yes"/>
      <point x="472" y="120"/>
      <point x="394" y="72"/>
      <point x="301" y="72" type="curve" smooth="yes"/>
      <point x="210" y="72"/>
      <point x="155" y="110"/>
      <point x="140" y="165" type="curve" smooth="yes"/>
      <point x="134" y="183"/>
      <point x="124" y="187"/>
      <point x="112" y="187" type="curve" smooth="yes"/>
      <point x="65" y="187" type="line" smooth="yes"/>
      <point x="53" y="187"/>
      <point x="43" y="179"/>
      <point x="44" y="167" type="curve" smooth="yes"/>
      <point x="51" y="71"/>
      <point x="140" y="-10"/>
      <point x="301" y="-10" type="curve" smooth="yes"/>
    </contour>
  </outline>
</glyph>
<glyph name="Sha-cy" format="1">
  <advance width="881"/>
  <unicode hex="0428"/>
  <outline>
    <contour>
      <point x="770" y="0" type="line" smooth="yes"/>
      <point x="784" y="0"/>
      <point x="793" y="10"/>
      <point x="793" y="23" type="curve" smooth="yes"/>
      <point x="793" y="677" type="line" smooth="yes"/>
      <point x="793" y="691"/>
      <point x="784" y="700"/>
      <point x="770" y="700" type="curve" smooth="yes"/>
      <point x="724" y="700" type="line" smooth="yes"/>
      <point x="710" y="700"/>
      <point x="701" y="691"/>
      <point x="701" y="677" type="curve" smooth="yes"/>
      <point x="701" y="87" type="line"/>
      <point x="485" y="87" type="line"/>
      <point x="485" y="677" type="line" smooth="yes"/>
      <point x="485" y="691"/>
      <point x="475" y="700"/>
      <point x="461" y="700" type="curve" smooth="yes"/>
      <point x="419" y="700" type="line" smooth="yes"/>
      <point x="405" y="700"/>
      <point x="396" y="691"/>
      <point x="396" y="677" type="curve" smooth="yes"/>
      <point x="396" y="87" type="line"/>
      <point x="180" y="87" type="line"/>
      <point x="180" y="677" type="line" smooth="yes"/>
      <point x="180" y="691"/>
      <point x="170" y="700"/>
      <point x="156" y="700" type="curve" smooth="yes"/>
      <point x="110" y="700" type="line" smooth="yes"/>
      <point x="97" y="700"/>
      <point x="87" y="691"/>
      <point x="87" y="677" type="curve" smooth="yes"/>
      <point x="87" y="23" type="line" smooth="yes"/>
      <point x="87" y="10"/>
      <point x="97" y="0"/>
      <point x="110" y="0" type="curve" smooth="yes"/>
    </contour>
  </outline>
</glyph>
<glyph name="Yeru-cy" format="1">
  <advance width="829"/>
  <unicode hex="042B"/>
  <outline>
    <contour>
      <point x="380" y="0" type="line"/>
      <point x="532" y="0"/>
      <point x="606" y="109"/>
      <point x="606" y="211" type="curve" smooth="yes"/>
      <point x="606" y="339"/>
      <point x="522" y="416"/>
      <point x="380" y="416" type="curve" smooth="yes"/>
      <point x="183" y="416" type="line"/>
      <point x="183" y="677" type="line" smooth="yes"/>
      <point x="183" y="691"/>
      <point x="173" y="700"/>
      <point x="159" y="700" type="curve" smooth="yes"/>
      <point x="110" y="700" type="line" smooth="yes"/>
      <point x="97" y="700"/>
      <point x="87" y="691"/>
      <point x="87" y="677" type="curve" smooth="yes"/>
      <point x="87" y="23" type="line" smooth="yes"/>
      <point x="87" y="10"/>
      <point x="97" y="0"/>
      <point x="110" y="0" type="curve" smooth="yes"/>
    </contour>
    <contour>
      <point x="182" y="335" type="line"/>
      <point x="371" y="335" type="line" smooth="yes"/>
      <point x="464" y="335"/>
      <point x="510" y="287"/>
      <point x="510" y="213" type="curve" smooth="yes"/>
      <point x="510" y="142"/>
      <point x="460" y="81"/>
      <point x="371" y="81" type="curve" smooth="yes"/>
      <point x="182" y="81" type="line"/>
    </contour>
    <contour>
      <point x="718" y="0" type="line"/>
      <point x="732" y="0"/>
      <point x="742" y="10"/>
      <point x="742" y="23" type="curve" smooth="yes"/>
      <point x="742" y="677" type="line" smooth="yes"/>
      <point x="742" y="691"/>
      <point x="732" y="700"/>
      <point x="718" y="700" type="curve" smooth="yes"/>
      <point x="669" y="700" type="line" smooth="yes"/>
      <point x="656" y="700"/>
      <point x="646" y="691"/>
      <point x="646" y="677" type="curve" smooth="yes"/>
      <point x="646" y="23" type="line" smooth="yes"/>
      <point x="646" y="10"/>
      <point x="656" y="0"/>
      <point x="669" y="0" type="curve" smooth="yes"/>
    </contour>
  </outline>
</glyph>
<glyph name="Softsign-cy" format="1">
  <advance width="640"/>
  <unicode hex="042C"/>
  <outline>
    <contour>
      <point x="380" y="0" type="line" smooth="yes"/>
      <point x="532" y="0"/>
      <point x="606" y="109"/>
      <point x="606" y="211" type="curve" smooth="yes"/>
      <point x="606" y="339"/>
      <point x="522" y="416"/>
      <point x="380" y="416" type="curve" smooth="yes"/>
      <point x="183" y="416" type="line"/>
      <point x="183" y="677" type="line" smooth="yes"/>
      <point x="183" y="691"/>
      <point x="173" y="700"/>
      <point x="159" y="700" type="curve" smooth="yes"/>
      <point x="110" y="700" type="line" smooth="yes"/>
      <point x="97" y="700"/>
      <point x="87" y="691"/>
      <point x="87" y="677" type="curve" smooth="yes"/>
      <point x="87" y="23" type="line" smooth="yes"/>
      <point x="87" y="10"/>
      <point x="97" y="0"/>
      <point x="110" y="0" type="curve"/>
    </contour>
    <contour>
      <point x="182" y="335" type="line"/>
      <point x="371" y="335" type="line" smooth="yes"/>
      <point x="464" y="335"/>
      <point x="510" y="287"/>
      <point x="510" y="213" type="curve" smooth="yes"/>
      <point x="510" y="142"/>
      <point x="460" y="81"/>
      <point x="371" y="81" type="curve" smooth="yes"/>
      <point x="182" y="81" type="line"/>
    </contour>
  </outline>
</glyph>
<glyph name="de-cy" format="1">
  <advance width="545"/>
  <unicode hex="0434"/>
  <outline>
    <contour>
      <point x="80" y="-110" type="line" smooth="yes"/>
      <point x="94" y="-110"/>
      <point x="103" y="-101"/>
      <point x="103" y="-87" type="curve" smooth="yes"/>
      <point x="103" y="0" type="line"/>
      <point x="417" y="0" type="line"/>
      <point x="417" y="-87" type="line" smooth="yes"/>
      <point x="417" y="-101"/>
      <point x="426" y="-110"/>
      <point x="440" y="-110" type="curve" smooth="yes"/>
      <point x="476" y="-110" type="line"/>
      <point x="489" y="-110"/>
      <point x="499" y="-101"/>
      <point x="499" y="-87" type="curve" smooth="yes"/>
      <point x="499" y="55" type="line" smooth="yes"/>
      <point x="499" y="68"/>
      <point x="489" y="78"/>
      <point x="476" y="78" type="curve" smooth="yes"/>
      <point x="453" y="78" type="line"/>
      <point x="453" y="497" type="line" smooth="yes"/>
      <point x="453" y="511"/>
      <point x="443" y="520"/>
      <point x="430" y="520" type="curve" smooth="yes"/>
      <point x="146" y="520" type="line" smooth="yes"/>
      <point x="132" y="520"/>
      <point x="123" y="511"/>
      <point x="123" y="497" type="curve" smooth="yes"/>
      <point x="123" y="162" type="line" smooth="yes"/>
      <point x="123" y="95"/>
      <point x="106" y="77"/>
      <point x="63" y="76" type="curve" smooth="yes"/>
      <point x="44" y="76" type="line" smooth="yes"/>
      <point x="31" y="76"/>
      <point x="21" y="66"/>
      <point x="21" y="53" type="curve" smooth="yes"/>
      <point x="21" y="-87" type="line" smooth="yes"/>
      <point x="21" y="-101"/>
      <point x="31" y="-110"/>
      <point x="44" y="-110" type="curve" smooth="yes"/>
    </contour>
    <contour>
      <point x="192" y="79"/>
      <point x="208" y="99"/>
      <point x="208" y="141" type="curve" smooth="yes"/>
      <point x="208" y="444" type="line"/>
      <point x="367" y="444" type="line"/>
      <point x="367" y="77" type="line"/>
      <point x="192" y="77" type="line"/>
    </contour>
  </outline>
</glyph>
<glyph name="ef-cy" format="1">
  <advance width="893"/>
  <unicode hex="0444"/>
  <outline>
    <contour>
      <point x="469" y="-190" type="line" smooth="yes"/>
      <point x="483" y="-190"/>
      <point x="492" y="-181"/>
      <point x="492" y="-167" type="curve" smooth="yes"/>
      <point x="492" y="66" type="line"/>
      <point x="525" y="22"/>
      <point x="574" y="-10"/>
      <point x="644" y="-10" type="curve" smooth="yes"/>
      <point x="785" y="-10"/>
      <point x="836" y="102"/>
      <point x="840" y="226" type="curve" smooth="yes"/>
      <point x="842" y="248"/>
      <point x="842" y="272"/>
      <point x="840" y="294" type="curve" smooth="yes"/>
      <point x="836" y="419"/>
      <point x="785" y="530"/>
      <point x="644" y="530" type="curve" smooth="yes"/>
      <point x="572" y="530"/>
      <point x="525" y="499"/>
      <point x="492" y="455" type="curve"/>
      <point x="492" y="687" type="line" smooth="yes"/>
      <point x="492" y="701"/>
      <point x="483" y="710"/>
      <point x="469" y="710" type="curve" smooth="yes"/>
      <point x="424" y="710" type="line" smooth="yes"/>
      <point x="411" y="710"/>
      <point x="401" y="701"/>
      <point x="401" y="687" type="curve" smooth="yes"/>
      <point x="401" y="455" type="line"/>
      <point x="369" y="499"/>
      <point x="322" y="530"/>
      <point x="249" y="530" type="curve" smooth="yes"/>
      <point x="108" y="530"/>
      <point x="58" y="419"/>
      <point x="53" y="294" type="curve" smooth="yes"/>
      <point x="52" y="272"/>
      <point x="52" y="248"/>
      <point x="53" y="226" type="curve" smooth="yes"/>
      <point x="57" y="102"/>
      <point x="108" y="-10"/>
      <point x="249" y="-10" type="curve" smooth="yes"/>
      <point x="319" y="-10"/>
      <point x="369" y="22"/>
      <point x="401" y="66" type="curve"/>
      <point x="401" y="-167" type="line" smooth="yes"/>
      <point x="401" y="-181"/>
      <point x="411" y="-190"/>
      <point x="424" y="-190" type="curve" smooth="yes"/>
    </contour>
    <contour>
      <point x="181" y="68"/>
      <point x="148" y="145"/>
      <point x="144" y="231" type="curve" smooth="yes"/>
      <point x="143" y="251"/>
      <point x="143" y="269"/>
      <point x="144" y="289" type="curve" smooth="yes"/>
      <point x="148" y="375"/>
      <point x="181" y="452"/>
      <point x="268" y="452" type="curve" smooth="yes"/>
      <point x="360" y="452"/>
      <point x="398" y="370"/>
      <point x="401" y="296" type="curve" smooth="yes"/>
      <point x="402" y="274"/>
      <point x="402" y="240"/>
      <point x="401" y="218" type="curve" smooth="yes"/>
      <point x="399" y="146"/>
      <point x="357" y="68"/>
      <point x="268" y="68" type="curve" smooth="yes"/>
    </contour>
    <contour>
      <point x="537" y="68"/>
      <point x="494" y="146"/>
      <point x="492" y="218" type="curve" smooth="yes"/>
      <point x="491" y="240"/>
      <point x="491" y="274"/>
      <point x="492" y="296" type="curve" smooth="yes"/>
      <point x="495" y="370"/>
      <point x="534" y="452"/>
      <point x="626" y="452" type="curve" smooth="yes"/>
      <point x="712" y="452"/>
      <point x="745" y="375"/>
      <point x="749" y="289" type="curve" smooth="yes"/>
      <point x="750" y="269"/>
      <point x="750" y="251"/>
      <point x="749" y="231" type="curve" smooth="yes"/>
      <point x="745" y="145"/>
      <point x="712" y="68"/>
      <point x="626" y="68" type="curve" smooth="yes"/>
    </contour>
  </outline>
</glyph>
<glyph name="Gheupturn-cy" format="1">
  <advance width="559"/>
  <unicode hex="0490"/>
  <outline>
    <contour>
      <point x="158" y="0" type="line" smooth="yes"/>
      <point x="172" y="0"/>
      <point x="182" y="10"/>
      <point x="182" y="23" type="curve" smooth="yes"/>
      <point x="182" y="616" type="line"/>
      <point x="516" y="616" type="line"/>
      <point x="530" y="616"/>
      <point x="539" y="625"/>
      <point x="539" y="639" type="curve" smooth="yes"/>
      <point x="539" y="787" type="line" smooth="yes"/>
      <point x="539" y="801"/>
      <point x="530" y="810"/>
      <point x="516" y="810" type="curve" smooth="yes"/>
      <point x="474" y="810" type="line" smooth="yes"/>
      <point x="460" y="810"/>
      <point x="451" y="801"/>
      <point x="451" y="787" type="curve" smooth="yes"/>
      <point x="451" y="700" type="line"/>
      <point x="110" y="700" type="line" smooth="yes"/>
      <point x="97" y="700"/>
      <point x="87" y="691"/>
      <point x="87" y="676" type="curve" smooth="yes"/>
      <point x="87" y="23" type="line" smooth="yes"/>
      <point x="87" y="10"/>
      <point x="97" y="0"/>
      <point x="110" y="0" type="curve" smooth="yes"/>
    </contour>
  </outline>
</glyph>
<glyph name="bullet" format="1">
  <advance width="381"/>
  <unicode hex="2022"/>
  <outline>
    <contour>
      <point x="249" y="202"/>
      <point x="297" y="250"/>
      <point x="297" y="308" type="curve" smooth="yes"/>
      <point x="297" y="367"/>
      <point x="249" y="415"/>
      <point x="191" y="415" type="curve" smooth="yes"/>
      <point x="132" y="415"/>
      <point x="84" y="367"/>
      <point x="84" y="308" type="curve" smooth="yes"/>
      <point x="84" y="250"/>
      <point x="132" y="202"/>
      <point x="191" y="202" type="curve" smooth="yes"/>
    </contour>
  </outline>
</glyph>
<glyph name="guilsinglleft" format="1">
  <advance width="352"/>
  <unicode hex="2039"/>
  <outline>
    <contour>
      <point x="287" y="85"/>
      <point x="295" y="94"/>
      <point x="295" y="106" type="curve" smooth="yes"/>
      <point x="295" y="143" type="line" smooth="yes"/>
      <point x="295" y="161"/>
      <point x="290" y="168"/>
      <point x="277" y="181" type="curve" smooth="yes"/>
      <point x="125" y="329" type="line"/>
      <point x="277" y="477" type="line" smooth="yes"/>
      <point x="290" y="490"/>
      <point x="295" y="498"/>
      <point x="295" y="515" type="curve" smooth="yes"/>
      <point x="295" y="552" type="line" smooth="yes"/>
      <point x="295" y="564"/>
      <point x="287" y="573"/>
      <point x="275" y="573" type="curve" smooth="yes"/>
      <point x="268" y="573"/>
      <point x="260" y="569"/>
      <point x="252" y="562" type="curve" smooth="yes"/>
      <point x="60" y="375" type="line" smooth="yes"/>
      <point x="47" y="363"/>
      <point x="44" y="352"/>
      <point x="43" y="341" type="curve" smooth="yes"/>
      <point x="43" y="317" type="line" smooth="yes"/>
      <point x="44" y="306"/>
      <point x="47" y="295"/>
      <point x="60" y="283" type="curve" smooth="yes"/>
      <point x="252" y="96" type="line" smooth="yes"/>
      <point x="260" y="90"/>
      <point x="268" y="85"/>
      <point x="275" y="85" type="curve" smooth="yes"/>
    </contour>
  </outline>
</glyph>
<glyph name="sixinferior" format="1">
  <advance width="340"/>
  <unicode hex="2086"/>
  <outline>
    <contour>
      <point x="251" y="-175"/>
      <point x="316" y="-130"/>
      <point x="316" y="-51" type="curve" smooth="yes"/>
      <point x="316" y="31"/>
      <point x="247" y="73"/>
      <point x="177" y="71" type="curve"/>
      <point x="235" y="140" type="line" smooth="yes"/>
      <point x="241" y="147"/>
      <point x="246" y="154"/>
      <point x="246" y="160" type="curve" smooth="yes"/>
      <point x="246" y="171"/>
      <point x="237" y="180"/>
      <point x="226" y="180" type="curve" smooth="yes"/>
      <point x="197" y="180" type="line" smooth="yes"/>
      <point x="186" y="180"/>
      <point x="175" y="173"/>
      <point x="168" y="165" type="curve" smooth="yes"/>
      <point x="81" y="59" type="line" smooth="yes"/>
      <point x="61" y="34"/>
      <point x="33" y="2"/>
      <point x="33" y="-52" type="curve" smooth="yes"/>
      <point x="33" y="-131"/>
      <point x="98" y="-175"/>
      <point x="175" y="-175" type="curve" smooth="yes"/>
    </contour>
    <contour>
      <point x="130" y="-112"/>
      <point x="103" y="-86"/>
      <point x="103" y="-51" type="curve" smooth="yes"/>
      <point x="103" y="-17"/>
      <point x="130" y="9"/>
      <point x="174" y="9" type="curve" smooth="yes"/>
      <point x="219" y="9"/>
      <point x="245" y="-17"/>
      <point x="245" y="-51" type="curve" smooth="yes"/>
      <point x="245" y="-86"/>
      <point x="219" y="-112"/>
      <point x="174" y="-112" type="curve" smooth="yes"/>
    </contour>
  </outline>
</glyph>
<glyph name="trademark" format="1">
  <advance width="631"/>
  <unicode hex="2122"/>
  <outline>
    <contour>
      <point x="333" y="434" type="line" smooth="yes"/>
      <point x="346" y="434"/>
      <point x="355" y="443"/>
      <point x="355" y="456" type="curve" smooth="yes"/>
      <point x="355" y="577" type="line"/>
      <point x="391" y="518" type="line" smooth="yes"/>
      <point x="398" y="507"/>
      <point x="403" y="498"/>
      <point x="417" y="498" type="curve" smooth="yes"/>
      <point x="428" y="498" type="line" smooth="yes"/>
      <point x="442" y="498"/>
      <point x="447" y="507"/>
      <point x="454" y="518" type="curve" smooth="yes"/>
      <point x="490" y="577" type="line"/>
      <point x="490" y="456" type="line" smooth="yes"/>
      <point x="490" y="443"/>
      <point x="499" y="434"/>
      <point x="512" y="434" type="curve" smooth="yes"/>
      <point x="533" y="434" type="line" smooth="yes"/>
      <point x="546" y="434"/>
      <point x="555" y="443"/>
      <point x="555" y="456" type="curve" smooth="yes"/>
      <point x="555" y="678" type="line" smooth="yes"/>
      <point x="555" y="691"/>
      <point x="546" y="700"/>
      <point x="533" y="700" type="curve" smooth="yes"/>
      <point x="513" y="700" type="line" smooth="yes"/>
      <point x="496" y="700"/>
      <point x="487" y="687"/>
      <point x="482" y="678" type="curve" smooth="yes"/>
      <point x="422" y="583" type="line"/>
      <point x="363" y="678" type="line" smooth="yes"/>
      <point x="358" y="687"/>
      <point x="349" y="700"/>
      <point x="332" y="700" type="curve" smooth="yes"/>
      <point x="312" y="700" type="line" smooth="yes"/>
      <point x="299" y="700"/>
      <point x="290" y="691"/>
      <point x="290" y="678" type="curve" smooth="yes"/>
      <point x="290" y="456" type="line" smooth="yes"/>
      <point x="290" y="443"/>
      <point x="299" y="434"/>
      <point x="312" y="434" type="curve" smooth="yes"/>
    </contour>
    <contour>
      <point x="164" y="434" type="line" smooth="yes"/>
      <point x="177" y="434"/>
      <point x="186" y="443"/>
      <point x="186" y="456" type="curve" smooth="yes"/>
      <point x="186" y="637" type="line"/>
      <point x="238" y="637" type="line" smooth="yes"/>
      <point x="251" y="637"/>
      <point x="260" y="646"/>
      <point x="260" y="659" type="curve" smooth="yes"/>
      <point x="260" y="678" type="line" smooth="yes"/>
      <point x="260" y="691"/>
      <point x="251" y="700"/>
      <point x="238" y="700" type="curve" smooth="yes"/>
      <point x="69" y="700" type="line" smooth="yes"/>
      <point x="56" y="700"/>
      <point x="47" y="691"/>
      <point x="47" y="678" type="curve"/>
      <point x="47" y="659" type="line" smooth="yes"/>
      <point x="47" y="646"/>
      <point x="56" y="637"/>
      <point x="69" y="637" type="curve" smooth="yes"/>
      <point x="121" y="637" type="line"/>
      <point x="121" y="456" type="line" smooth="yes"/>
      <point x="121" y="443"/>
      <point x="130" y="434"/>
      <point x="143" y="434" type="curve" smooth="yes"/>
    </contour>
  </outline>
</glyph>
<glyph name="lessequal" format="1">
  <advance width="532"/>
  <unicode hex="2264"/>
  <outline>
    <contour>
      <point x="443" y="194"/>
      <point x="452" y="201"/>
      <point x="452" y="214" type="curve" smooth="yes"/>
      <point x="452" y="246" type="line" smooth="yes"/>
      <point x="452" y="263"/>
      <point x="445" y="272"/>
      <point x="429" y="279" type="curve" smooth="yes"/>
      <point x="161" y="407" type="line"/>
      <point x="429" y="534" type="line" smooth="yes"/>
      <point x="445" y="541"/>
      <point x="452" y="550"/>
      <point x="452" y="567" type="curve" smooth="yes"/>
      <point x="452" y="599" type="line" smooth="yes"/>
      <point x="452" y="612"/>
      <point x="443" y="619"/>
      <point x="432" y="619" type="curve" smooth="yes"/>
      <point x="424" y="619"/>
      <point x="415" y="615"/>
      <point x="408" y="611" type="curve" smooth="yes"/>
      <point x="95" y="460" type="line" smooth="yes"/>
      <point x="74" y="448"/>
      <point x="66" y="437"/>
      <point x="66" y="419" type="curve"/>
      <point x="66" y="395" type="line" smooth="yes"/>
      <point x="66" y="376"/>
      <point x="74" y="365"/>
      <point x="95" y="354" type="curve" smooth="yes"/>
      <point x="408" y="202" type="line" smooth="yes"/>
      <point x="415" y="198"/>
      <point x="424" y="194"/>
      <point x="432" y="194" type="curve" smooth="yes"/>
    </contour>
    <contour>
      <point x="429" y="0" type="line" smooth="yes"/>
      <point x="443" y="0"/>
      <point x="452" y="10"/>
      <point x="452" y="23" type="curve" smooth="yes"/>
      <point x="452" y="53" type="line" smooth="yes"/>
      <point x="452" y="66"/>
      <point x="443" y="76"/>
      <point x="429" y="76" type="curve"/>
      <point x="89" y="76" type="line" smooth="yes"/>
      <point x="76" y="76"/>
      <point x="66" y="66"/>
      <point x="66" y="53" type="curve" smooth="yes"/>
      <point x="66" y="23" type="line" smooth="yes"/>
      <point x="66" y="10"/>
      <point x="76" y="0"/>
      <point x="89" y="0" type="curve" smooth="yes"/>
    </contour>
  </outline>
</glyph>
<glyph name="Breve" format="1">
  <advance width="384"/>
  <outline>
    <contour>
      <point x="288" y="741"/>
      <point x="318" y="801"/>
      <point x="318" y="864" type="curve" smooth="yes"/>
      <point x="318" y="874"/>
      <point x="311" y="883"/>
      <point x="299" y="883" type="curve" smooth="yes"/>
      <point x="270" y="883" type="line" smooth="yes"/>
      <point x="258" y="883"/>
      <point x="251" y="874"/>
      <point x="251" y="864" type="curve" smooth="yes"/>
      <point x="251" y="832"/>
      <point x="239" y="799"/>
      <point x="192" y="799" type="curve" smooth="yes"/>
      <point x="146" y="799"/>
      <point x="134" y="832"/>
      <point x="134" y="864" type="curve" smooth="yes"/>
      <point x="134" y="874"/>
      <point x="127" y="883"/>
      <point x="115" y="883" type="curve" smooth="yes"/>
      <point x="86" y="883" type="line" smooth="yes"/>
      <point x="74" y="883"/>
      <point x="67" y="874"/>
      <point x="67" y="864" type="curve" smooth="yes"/>
      <point x="67" y="801"/>
      <point x="97" y="741"/>
      <point x="192" y="741" type="curve" smooth="yes"/>
    </contour>
  </outline>
</glyph>
<glyph name="Cedilla" format="1">
  <advance width="314"/>
  <outline>
    <contour>
      <point x="215" y="-221"/>
      <point x="247" y="-181"/>
      <point x="247" y="-132" type="curve" smooth="yes"/>
      <point x="247" y="-83"/>
      <point x="216" y="-48"/>
      <point x="170" y="-48" type="curve" smooth="yes"/>
      <point x="157" y="-48"/>
      <point x="142" y="-51"/>
      <point x="134" y="-56" type="curve"/>
      <point x="175" y="27" type="line"/>
      <point x="115" y="27" type="line"/>
      <point x="80" y="-53" type="line" smooth="yes"/>
      <point x="76" y="-64"/>
      <point x="69" y="-75"/>
      <point x="77" y="-83" type="curve" smooth="yes"/>
      <point x="93" y="-101" type="line" smooth="yes"/>
      <point x="108" y="-117"/>
      <point x="123" y="-98"/>
      <point x="152" y="-98" type="curve" smooth="yes"/>
      <point x="175" y="-98"/>
      <point x="193" y="-111"/>
      <point x="193" y="-133" type="curve" smooth="yes"/>
      <point x="193" y="-156"/>
      <point x="175" y="-171"/>
      <point x="152" y="-171" type="curve" smooth="yes"/>
      <point x="110" y="-171"/>
      <point x="103" y="-139"/>
      <point x="86" y="-155" type="curve" smooth="yes"/>
      <point x="71" y="-169" type="line" smooth="yes"/>
      <point x="54" y="-185"/>
      <point x="96" y="-219"/>
      <point x="152" y="-220" type="curve" smooth="yes"/>
    </contour>
  </outline>
</glyph>
<glyph name="f_f_i" format="1">
  <advance width="847"/>
  <outline>
    <contour>
      <point x="193" y="0" type="line"/>
      <point x="206" y="0"/>
      <point x="216" y="10"/>
      <point x="216" y="23" type="curve"/>
      <point x="216" y="443" type="line"/>
      <point x="430" y="443" type="line"/>
      <point x="430" y="23" type="line"/>
      <point x="430" y="10"/>
      <point x="440" y="0"/>
      <point x="453" y="0" type="curve"/>
      <point x="496" y="0" type="line"/>
      <point x="510" y="0"/>
      <point x="519" y="10"/>
      <point x="519" y="23" type="curve"/>
      <point x="519" y="443" type="line"/>
      <point x="683" y="443" type="line"/>
      <point x="683" y="23" type="line"/>
      <point x="683" y="10"/>
      <point x="692" y="0"/>
      <point x="705" y="0" type="curve"/>
      <point x="749" y="0" type="line"/>
      <point x="762" y="0"/>
      <point x="772" y="10"/>
      <point x="772" y="23" type="curve"/>
      <point x="772" y="497" type="line"/>
      <point x="772" y="511"/>
      <point x="762" y="520"/>
      <point x="749" y="520" type="curve"/>
      <point x="519" y="520" type="line"/>
      <point x="519" y="565" type="line"/>
      <point x="519" y="628"/>
      <point x="537" y="663"/>
      <point x="601" y="663" type="curve"/>
      <point x="749" y="663" type="line"/>
      <point x="762" y="663"/>
      <point x="772" y="672"/>
      <point x="772" y="685" type="curve"/>
      <point x="772" y="717" type="line"/>
      <point x="772" y="731"/>
      <point x="762" y="740"/>
      <point x="749" y="740" type="curve"/>
      <point x="599" y="740" type="line"/>
      <point x="474" y="740"/>
      <point x="430" y="672"/>
      <point x="430" y="570" type="curve"/>
      <point x="430" y="520" type="line"/>
      <point x="216" y="520" type="line"/>
      <point x="216" y="565" type="line"/>
      <point x="216" y="628"/>
      <point x="233" y="663"/>
      <point x="298" y="663" type="curve"/>
      <point x="355" y="663" type="line"/>
      <point x="368" y="663"/>
      <point x="377" y="672"/>
      <point x="377" y="685" type="curve"/>
      <point x="377" y="717" type="line"/>
      <point x="377" y="731"/>
      <point x="368" y="740"/>
      <point x="355" y="740" type="curve"/>
      <point x="296" y="740" type="line"/>
      <point x="170" y="740"/>
      <point x="127" y="672"/>
      <point x="127" y="570" type="curve"/>
      <point x="127" y="520" type="line"/>
      <point x="41" y="520" type="line"/>
      <point x="28" y="520"/>
      <point x="18" y="511"/>
      <point x="18" y="497" type="curve"/>
      <point x="18" y="465" type="line"/>
      <point x="18" y="452"/>
      <point x="28" y="443"/>
      <point x="41" y="443" type="curve"/>
      <point x="127" y="443" type="line"/>
      <point x="127" y="23" type="line"/>
      <point x="127" y="10"/>
      <point x="136" y="0"/>
      <point x="149" y="0" type="curve"/>
    </contour>
  </outline>
</glyph>
<glyph name="guillemetleft.cap" format="1">
  <advance width="619"/>
  <outline>
    <contour>
      <point x="548" y="89"/>
      <point x="556" y="97"/>
      <point x="556" y="109" type="curve" smooth="yes"/>
      <point x="556" y="147" type="line" smooth="yes"/>
      <point x="556" y="164"/>
      <point x="551" y="171"/>
      <point x="538" y="184" type="curve" smooth="yes"/>
      <point x="386" y="333" type="line"/>
      <point x="538" y="481" type="line" smooth="yes"/>
      <point x="551" y="494"/>
      <point x="556" y="501"/>
      <point x="556" y="518" type="curve" smooth="yes"/>
      <point x="556" y="556" type="line" smooth="yes"/>
      <point x="556" y="568"/>
      <point x="548" y="576"/>
      <point x="536" y="576" type="curve" smooth="yes"/>
      <point x="529" y="576"/>
      <point x="521" y="572"/>
      <point x="513" y="565" type="curve" smooth="yes"/>
      <point x="321" y="379" type="line" smooth="yes"/>
      <point x="308" y="367"/>
      <point x="305" y="356"/>
      <point x="304" y="345" type="curve" smooth="yes"/>
      <point x="304" y="320" type="line" smooth="yes"/>
      <point x="305" y="309"/>
      <point x="308" y="299"/>
      <point x="321" y="287" type="curve" smooth="yes"/>
      <point x="513" y="100" type="line" smooth="yes"/>
      <point x="521" y="93"/>
      <point x="529" y="89"/>
      <point x="536" y="89" type="curve" smooth="yes"/>
    </contour>
    <contour>
      <point x="292" y="89"/>
      <point x="300" y="97"/>
      <point x="300" y="109" type="curve" smooth="yes"/>
      <point x="300" y="147" type="line" smooth="yes"/>
      <point x="300" y="164"/>
      <point x="295" y="171"/>
      <point x="282" y="184" type="curve" smooth="yes"/>
      <point x="130" y="333" type="line"/>
      <point x="282" y="481" type="line" smooth="yes"/>
      <point x="295" y="494"/>
      <point x="300" y="501"/>
      <point x="300" y="518" type="curve" smooth="yes"/>
      <point x="300" y="556" type="line" smooth="yes"/>
      <point x="300" y="568"/>
      <point x="292" y="576"/>
      <point x="280" y="576" type="curve" smooth="yes"/>
      <point x="273" y="576"/>
      <point x="265" y="572"/>
      <point x="257" y="565" type="curve" smooth="yes"/>
      <point x="65" y="379" type="line" smooth="yes"/>
      <point x="52" y="367"/>
      <point x="49" y="356"/>
      <point x="48" y="345" type="curve"/>
      <point x="48" y="320" type="line" smooth="yes"/>
      <point x="49" y="309"/>
      <point x="52" y="299"/>
      <point x="65" y="287" type="curve" smooth="yes"/>
      <point x="257" y="100" type="line" smooth="yes"/>
      <point x="265" y="93"/>
      <point x="273" y="89"/>
      <point x="280" y="89" type="curve" smooth="yes"/>
    </contour>
  </outline>
</glyph>
<glyph name="guilsinglright.cap" format="1">
  <advance width="363"/>
  <outline>
    <contour>
      <point x="89" y="89"/>
      <point x="97" y="93"/>
      <point x="105" y="100" type="curve" smooth="yes"/>
      <point x="298" y="287" type="line" smooth="yes"/>
      <point x="310" y="299"/>
      <point x="313" y="309"/>
      <point x="314" y="320" type="curve" smooth="yes"/>
      <point x="314" y="345" type="line" smooth="yes"/>
      <point x="313" y="356"/>
      <point x="310" y="367"/>
      <point x="298" y="379" type="curve" smooth="yes"/>
      <point x="105" y="565" type="line" smooth="yes"/>
      <point x="97" y="572"/>
      <point x="89" y="576"/>
      <point x="82" y="576" type="curve" smooth="yes"/>
      <point x="70" y="576"/>
      <point x="62" y="568"/>
      <point x="62" y="556" type="curve" smooth="yes"/>
      <point x="62" y="518" type="line" smooth="yes"/>
      <point x="62" y="501"/>
      <point x="67" y="494"/>
      <point x="80" y="481" type="curve" smooth="yes"/>
      <point x="232" y="333" type="line"/>
      <point x="80" y="184" type="line" smooth="yes"/>
      <point x="67" y="171"/>
      <point x="62" y="164"/>
      <point x="62" y="147" type="curve" smooth="yes"/>
      <point x="62" y="109" type="line" smooth="yes"/>
      <point x="62" y="97"/>
      <point x="70" y="89"/>
      <point x="82" y="89" type="curve" smooth="yes"/>
    </contour>
  </outline>
</glyph>
<glyph name="multiply.cap" format="1">
  <advance width="556"/>
  <outline>
    <contour>
      <point x="106" y="131"/>
      <point x="120" y="131"/>
      <point x="129" y="140" type="curve" smooth="yes"/>
      <point x="277" y="288" type="line"/>
      <point x="425" y="140" type="line" smooth="yes"/>
      <point x="435" y="131"/>
      <point x="448" y="131"/>
      <point x="458" y="140" type="curve" smooth="yes"/>
      <point x="488" y="170" type="line" smooth="yes"/>
      <point x="497" y="180"/>
      <point x="497" y="193"/>
      <point x="488" y="203" type="curve" smooth="yes"/>
      <point x="339" y="350" type="line"/>
      <point x="488" y="498" type="line" smooth="yes"/>
      <point x="497" y="508"/>
      <point x="497" y="521"/>
      <point x="488" y="531" type="curve" smooth="yes"/>
      <point x="458" y="561" type="line" smooth="yes"/>
      <point x="448" y="570"/>
      <point x="435" y="570"/>
      <point x="425" y="561" type="curve" smooth="yes"/>
      <point x="277" y="412" type="line"/>
      <point x="129" y="561" type="line" smooth="yes"/>
      <point x="120" y="570"/>
      <point x="106" y="570"/>
      <point x="97" y="561" type="curve" smooth="yes"/>
      <point x="67" y="531" type="line" smooth="yes"/>
      <point x="58" y="521"/>
      <point x="58" y="508"/>
      <point x="67" y="499" type="curve" smooth="yes"/>
      <point x="215" y="350" type="line"/>
      <point x="67" y="202" type="line" smooth="yes"/>
      <point x="58" y="193"/>
      <point x="58" y="180"/>
      <point x="67" y="170" type="curve" smooth="yes"/>
      <point x="97" y="140" type="line" smooth="yes"/>
    </contour>
  </outline>
</glyph>
<glyph name="one.otlf" format="1">
  <advance width="617"/>
  <outline>
    <contour>
      <point x="533" y="0" type="line"/>
      <point x="547" y="0"/>
      <point x="556" y="10"/>
      <point x="556" y="23" type="curve"/>
      <point x="556" y="61" type="line"/>
      <point x="556" y="75"/>
      <point x="547" y="84"/>
      <point x="533" y="84" type="curve"/>
      <point x="378" y="84" type="line"/>
      <point x="378" y="677" type="line"/>
      <point x="378" y="691"/>
      <point x="368" y="700"/>
      <point x="355" y="700" type="curve"/>
      <point x="307" y="700" type="line"/>
      <point x="298" y="700"/>
      <point x="291" y="699"/>
      <point x="282" y="693" type="curve"/>
      <point x="97" y="550" type="line"/>
      <point x="85" y="542"/>
      <point x="84" y="529"/>
      <point x="92" y="518" type="curve"/>
      <point x="116" y="487" type="line"/>
      <point x="124" y="476"/>
      <point x="137" y="474"/>
      <point x="148" y="483" type="curve"/>
      <point x="283" y="587" type="line"/>
      <point x="283" y="84" type="line"/>
      <point x="113" y="84" type="line"/>
      <point x="99" y="84"/>
      <point x="90" y="75"/>
      <point x="90" y="61" type="curve"/>
      <point x="90" y="23" type="line"/>
      <point x="90" y="10"/>
      <point x="99" y="0"/>
      <point x="113" y="0" type="curve"/>
    </contour>
  </outline>
</glyph>
